#!OML:ASF G:\JayActor3\Patient Classification 1\Patient 1\Session 5\male.ASF
:FULLY-SPECIFIED
:DEGREES
866
root 38.1691 15.6481 -6.23046 -65.477 -89.1687 77.3323
lowerback 36.6254 -1.35334 2.31557
upperback 9.78412 -2.23041 -1.83193
thorax -7.45972 -1.48168 -2.2543
lowerneck 2.52282 1.10358 3.88176
upperneck -23.3169 1.32437 0.118568
head -7.54228 -0.0245488 -0.67253
rclavicle -9.54166e-015 -1.23246e-014
rhumerus -28.4882 0.683627 -89.6347
rradius 45.6769
rwrist -1.20143
rhand -21.5602 -11.6578
rfingers 7.12502
rthumb 4.83341 -41.5826
lclavicle -9.54166e-015 -1.23246e-014
lhumerus -29.2611 -1.09659 84.1843
lradius 35.6512
lwrist 21.6915
lhand -20.9947 15.9107
lfingers 7.12502
lthumb 5.37942 45.8225
rfemur -54.7767 -4.03531 24.9577
rtibia 76.1061
rfoot 4.15473 -1.29102
rtoes -8.59862
lfemur -63.6589 9.59074 -25.9443
ltibia 69.4502
lfoot 5.73967 -2.26466
ltoes -18.3608
867
root 38.2767 15.6632 -6.23703 -66.0396 -89.1614 77.9769
lowerback 36.5548 -1.34059 2.28418
upperback 9.76389 -2.22251 -1.83436
thorax -7.45668 -1.47644 -2.24481
lowerneck 2.51003 1.11216 3.88637
upperneck -23.3276 1.33727 0.127378
head -7.5434 -0.0202162 -0.671232
rclavicle -1.59028e-015 -4.57205e-015
rhumerus -28.4455 0.623936 -89.5865
rradius 45.5224
rwrist -1.18703
rhand -21.479 -11.7263
rfingers 7.12502
rthumb 4.91187 -41.6494
lclavicle -1.59028e-015 -4.57205e-015
lhumerus -29.2438 -1.11872 84.1876
lradius 35.555
lwrist 21.609
lhand -20.971 15.8884
lfingers 7.12502
lthumb 5.40234 45.7996
rfemur -55.0935 -4.15446 25.0045
rtibia 75.7373
rfoot 4.39557 -1.26479
rtoes -8.12583
lfemur -63.5963 9.71253 -25.7825
ltibia 71.5071
lfoot 5.49515 -1.48519
ltoes -17.9596
868
root 38.3834 15.6798 -6.24277 -66.8047 -89.1527 78.8464
lowerback 36.4621 -1.32906 2.25834
upperback 9.74156 -2.21347 -1.83616
thorax -7.4482 -1.47031 -2.23849
lowerneck 2.4872 1.11999 3.88623
upperneck -23.321 1.3475 0.131491
head -7.53698 -0.0156433 -0.670422
rclavicle 3.18055e-015 3.77691e-015
rhumerus -28.4112 0.558616 -89.5352
rradius 45.4294
rwrist -1.231
rhand -21.3406 -11.8641
rfingers 7.12502
rthumb 5.0455 -41.784
lclavicle 3.18055e-015 3.77691e-015
lhumerus -29.2232 -1.15346 84.1904
lradius 35.4817
lwrist 21.4991
lhand -20.9061 15.8683
lfingers 7.12502
lthumb 5.46504 45.7779
rfemur -55.4189 -4.25982 25.0543
rtibia 75.3416
rfoot 4.64172 -1.26236
rtoes -7.64722
lfemur -63.458 9.82468 -25.6059
ltibia 73.4387
lfoot 5.33597 -0.884752
ltoes -17.6288
869
root 38.4895 15.6982 -6.24753 -68.0891 -89.1512 80.2527
lowerback 36.351 -1.31848 2.24603
upperback 9.71998 -2.20084 -1.83897
thorax -7.43254 -1.46227 -2.24212
lowerneck 2.45482 1.12641 3.88398
upperneck -23.3027 1.35358 0.127734
head -7.52496 -0.011742 -0.671486
rclavicle -1.23246e-014 -1.66979e-014
rhumerus -28.3824 0.493712 -89.4853
rradius 45.3907
rwrist -1.3253
rhand -21.1744 -12.0434
rfingers 7.12502
rthumb 5.206 -41.9595
lclavicle -1.23246e-014 -1.66979e-014
lhumerus -29.2014 -1.20146 84.1888
lradius 35.4405
lwrist 21.3819
lhand -20.8235 15.8393
lfingers 7.12502
lthumb 5.54478 45.7468
rfemur -55.742 -4.33823 25.1127
rtibia 74.9137
rfoot 4.88544 -1.28213
rtoes -7.20174
lfemur -63.2358 9.93439 -25.4114
ltibia 75.2323
lfoot 5.24964 -0.451211
ltoes -17.3771
870
root 38.595 15.7189 -6.25133 -70.1196 -89.1538 82.4155
lowerback 36.2242 -1.30826 2.24326
upperback 9.70463 -2.18621 -1.84394
thorax -7.40456 -1.45328 -2.25424
lowerneck 2.41668 1.13296 3.8774
upperneck -23.2848 1.35719 0.115553
head -7.51198 -0.00798214 -0.674374
rclavicle -4.6118e-014 -6.04305e-014
rhumerus -28.3509 0.439182 -89.4395
rradius 45.3965
rwrist -1.43768
rhand -20.9988 -12.2405
rfingers 7.12502
rthumb 5.37546 -42.1523
lclavicle -4.6118e-014 -6.04305e-014
lhumerus -29.1761 -1.25299 84.1782
lradius 35.4351
lwrist 21.2792
lhand -20.7191 15.8002
lfingers 7.12502
lthumb 5.64559 45.705
rfemur -56.045 -4.38157 25.1721
rtibia 74.445
rfoot 5.11221 -1.32769
rtoes -6.74499
lfemur -62.9174 10.0444 -25.2038
ltibia 76.876
lfoot 5.22696 -0.168961
ltoes -17.2009
871
root 38.6999 15.7422 -6.25415 -73.3322 -89.1594 85.7618
lowerback 36.0911 -1.2963 2.24812
upperback 9.69596 -2.16818 -1.85323
thorax -7.36701 -1.44282 -2.27643
lowerneck 2.38117 1.13911 3.86787
upperneck -23.2738 1.35856 0.0966887
head -7.50175 -0.00471866 -0.678817
rclavicle -1.43125e-014 -3.33958e-014
rhumerus -28.3241 0.404795 -89.402
rradius 45.4476
rwrist -1.56522
rhand -20.8329 -12.4331
rfingers 7.12502
rthumb 5.53573 -42.3408
lclavicle -1.43125e-014 -3.33958e-014
lhumerus -29.1472 -1.29899 84.1542
lradius 35.4603
lwrist 21.2097
lhand -20.6076 15.7576
lfingers 7.12502
lthumb 5.75323 45.6595
rfemur -56.3112 -4.38191 25.2298
rtibia 73.9315
rfoot 5.3185 -1.39955
rtoes -6.30687
lfemur -62.4926 10.1624 -24.9866
ltibia 78.3637
lfoot 5.26897 -0.00892576
ltoes -17.094
